<svg xmlns="http://www.w3.org/2000/svg" width="56" height="56" fill="none"><rect width="56" height="56" fill="#FF6321" opacity=".1" rx="12"/><g fill="#FF6321" clip-path="url(#a)"><path d="M38.605 17.395c-5.172-5.172-13.06-5.716-18.793-1.966l-1.093-1.093a3.099 3.099 0 0 0-4.385 0 3.104 3.104 0 0 0 0 4.385l1.093 1.093A14.895 14.895 0 0 0 13 28c0 8.29 6.708 15 15 15 8.289 0 14.998-6.708 14.998-15a14.9 14.9 0 0 0-4.393-10.605Zm-22.945 0c-.768-.767-.223-2.093.866-2.093.328 0 .635.128.867.36l.902.902c-.632.538-1.194 1.1-1.733 1.733l-.903-.902Zm21.62 19.886c-5.13 5.129-13.431 5.13-18.561 0-5.129-5.129-5.13-13.43 0-18.56 5.129-5.13 13.43-5.13 18.56 0 5.13 5.128 5.13 13.43 0 18.56Z"/><path d="M36.29 19.72c-4.512-4.56-11.966-4.608-16.57-.008-4.49 4.43-4.676 11.9-.01 16.572 4.514 4.56 11.968 4.608 16.573.008 4.488-4.43 4.675-11.9.008-16.572ZM21.736 35.594l.631-.632a.937.937 0 0 0-1.325-1.326l-.632.632a9.84 9.84 0 0 1 0-12.532l.632.631a.935.935 0 0 0 .663.275c.827 0 1.255-1.008.662-1.6l-.631-.632a9.84 9.84 0 0 1 12.532 0l-.632.632c-.592.592-.164 1.6.663 1.6.24 0 .48-.091.663-.274l.632-.632a9.84 9.84 0 0 1 0 12.532l-.632-.632a.938.938 0 0 0-1.326 1.326l.632.632a9.84 9.84 0 0 1-12.532 0Z"/><path d="M30.747 25.79a.937.937 0 0 0-.538-.538l-6.093-2.344c-.757-.29-1.503.455-1.212 1.212l2.344 6.093c.095.248.29.443.538.538 6.648 2.558 6.182 2.407 6.43 2.407a.938.938 0 0 0 .875-1.274l-2.344-6.094Zm-3.899 3.361-1.437-3.736 3.736 1.437 1.437 3.736-3.736-1.437Z"/></g><defs><clipPath id="a"><path fill="#fff" d="M13 13h30v30H13z"/></clipPath></defs></svg>