<svg xmlns="http://www.w3.org/2000/svg" width="40" height="40" fill="none"><g clip-path="url(#a)"><path fill="#FF6321" d="M40 20c0-4.124-.935-7.734-2.781-10.753a4.695 4.695 0 0 0-.646-5.82 4.685 4.685 0 0 0-5.821-.647C27.734.935 24.123 0 20 0c-4.123 0-7.733.935-10.752 2.78a4.686 4.686 0 0 0-5.82.647 4.685 4.685 0 0 0-.648 5.821C.935 12.266 0 15.877 0 20c0 4.124.935 7.734 2.781 10.753a4.695 4.695 0 0 0 .646 5.82 4.685 4.685 0 0 0 5.821.647C12.267 39.065 15.877 40 20 40c4.123 0 7.733-.935 10.752-2.78a4.686 4.686 0 0 0 5.82-.647 4.685 4.685 0 0 0 .647-5.821C39.066 27.734 40 24.124 40 20Zm-9.698 3.673c.411-1.148.636-2.385.636-3.673 0-1.288-.225-2.524-.636-3.673l4.686-4.686c1.253 2.37 1.887 5.173 1.887 8.359s-.634 5.989-1.887 8.359l-4.686-4.686ZM20 27.813c-4.308 0-7.813-3.505-7.813-7.813s3.505-7.813 7.813-7.813 7.813 3.505 7.813 7.813-3.505 7.813-7.813 7.813Zm-14.988.546C3.76 25.989 3.125 23.186 3.125 20s.634-5.989 1.887-8.359l4.686 4.686A10.887 10.887 0 0 0 9.062 20c0 1.288.225 2.524.636 3.673L5.012 28.36ZM34.363 5.637c.61.61.61 1.6 0 2.21l-5.607 5.606a11.037 11.037 0 0 0-2.21-2.21l5.607-5.606c.611-.61 1.6-.61 2.21 0Zm-6.004-.625-4.686 4.686A10.887 10.887 0 0 0 20 9.062c-1.288 0-2.524.225-3.673.636L11.64 5.012C14.011 3.76 16.814 3.125 20 3.125s5.989.634 8.359 1.887Zm-22.722.625c.61-.61 1.599-.61 2.21 0l5.606 5.606a11.037 11.037 0 0 0-2.21 2.21L5.637 7.847a1.562 1.562 0 0 1 0-2.21Zm0 28.726c-.61-.61-.61-1.6 0-2.21l5.606-5.606a11.037 11.037 0 0 0 2.21 2.21l-5.606 5.606c-.611.61-1.6.61-2.21 0Zm6.004.625 4.686-4.686c1.148.411 2.385.636 3.673.636 1.288 0 2.524-.225 3.673-.636l4.686 4.686c-2.37 1.253-5.173 1.887-8.359 1.887s-5.989-.634-8.359-1.887Zm22.722-.625c-.61.61-1.599.61-2.21 0l-5.606-5.607a11.037 11.037 0 0 0 2.21-2.21l5.606 5.607c.61.61.61 1.6 0 2.21Z"/></g><defs><clipPath id="a"><path fill="#fff" d="M0 0h40v40H0z"/></clipPath></defs></svg>