<svg xmlns="http://www.w3.org/2000/svg" width="40" height="40" fill="none"><g fill="#FF6321" clip-path="url(#a)"><path d="m38.96 18.84-4.836-1.716a1.562 1.562 0 1 0-1.045 2.945l3.796 1.347v14.83l-5.938-2.048v-8.882a1.562 1.562 0 1 0-3.125 0v8.87l-6.25 2.083v-3.457a1.562 1.562 0 1 0-3.125 0v3.457l-6.25-2.083v-8.87a1.562 1.562 0 1 0-3.125 0v8.882l-5.937 2.047v-14.83l3.796-1.346a1.562 1.562 0 1 0-1.045-2.945L1.04 18.84A1.56 1.56 0 0 0 0 20.312v18.125a1.562 1.562 0 0 0 2.072 1.477l8.562-2.952 8.872 2.957c.252.085.502.081.494.08.165 0 .355-.033.494-.08l8.872-2.957 8.562 2.952A1.563 1.563 0 0 0 40 38.437V20.312c0-.661-.417-1.251-1.04-1.472Z"/><path d="M18.895 27.667a1.558 1.558 0 0 0 2.21 0 58.001 58.001 0 0 0 4.832-5.636c3.318-4.423 5-8.156 5-11.094C30.937 4.907 26.031 0 20 0S9.062 4.907 9.062 10.937c0 2.938 1.683 6.67 5 11.094a57.985 57.985 0 0 0 4.833 5.636ZM20 3.125c4.308 0 7.812 3.505 7.812 7.812 0 4.01-4.917 10.206-7.812 13.361-2.895-3.155-7.813-9.35-7.813-13.36 0-4.308 3.505-7.813 7.813-7.813Z"/><path d="M24.688 10.938A4.693 4.693 0 0 0 20 6.25a4.693 4.693 0 0 0-4.688 4.688A4.693 4.693 0 0 0 20 15.625a4.693 4.693 0 0 0 4.688-4.688Zm-6.25 0a1.564 1.564 0 0 1 3.125 0 1.564 1.564 0 0 1-3.126-.001Z"/></g><defs><clipPath id="a"><path fill="#fff" d="M0 0h40v40H0z"/></clipPath></defs></svg>