<svg xmlns="http://www.w3.org/2000/svg" width="56" height="56" fill="none"><rect width="56" height="56" fill="#FF6321" opacity=".1" rx="12"/><g fill="#FF6321" clip-path="url(#a)"><path d="M18.625 20.031a3.52 3.52 0 0 0 3.516-3.515A3.52 3.52 0 0 0 18.625 13a3.52 3.52 0 0 0-3.516 3.516 3.52 3.52 0 0 0 3.516 3.515Zm0-4.687c.646 0 1.172.526 1.172 1.172 0 .646-.526 1.172-1.172 1.172a1.173 1.173 0 0 1-1.172-1.172c0-.646.526-1.172 1.172-1.172ZM37.14 33.625h-3.515V22.807c1.471 1.2 2.344 3 2.344 4.959a1.172 1.172 0 1 0 2.343 0 8.75 8.75 0 0 0-3.063-6.653c2.031-.396 4.224-.124 5.53 2.49a1.172 1.172 0 1 0 2.097-1.049c-1.233-2.466-3.266-3.825-5.88-3.93-1.057-.042-2.056.123-2.89.336a3.514 3.514 0 0 1 3.032-1.741h.002a1.17 1.17 0 1 0-.002-2.344 5.851 5.851 0 0 0-4.685 2.346 5.851 5.851 0 0 0-4.685-2.346h-.003a1.17 1.17 0 1 0 .003 2.344c1.29 0 2.42.7 3.031 1.74-.833-.212-1.832-.377-2.89-.335-2.613.105-4.646 1.464-5.88 3.93a1.172 1.172 0 0 0 2.097 1.048c1.307-2.613 3.5-2.885 5.53-2.49a8.752 8.752 0 0 0-3.062 6.654 1.172 1.172 0 0 0 2.343 0c0-1.959.873-3.758 2.344-4.96v10.819h-5.39a5.866 5.866 0 0 0-5.86 5.86c0 .645-.525 1.171-1.172 1.171h-2.343a1.173 1.173 0 0 1-1.172-1.172 1.172 1.172 0 1 0-2.344 0A3.52 3.52 0 0 0 16.516 43h2.343a3.5 3.5 0 0 0 2.344-.898 3.5 3.5 0 0 0 2.344.898h2.11c.899 0 1.72-.34 2.343-.898a3.501 3.501 0 0 0 2.344.898h2.343a3.5 3.5 0 0 0 2.344-.898 3.501 3.501 0 0 0 2.344.898h2.11A3.52 3.52 0 0 0 43 39.484c0-3.23-2.629-5.86-5.86-5.86Zm2.344 7.031h-2.11a1.173 1.173 0 0 1-1.171-1.172 1.172 1.172 0 1 0-2.344 0c0 .646-.526 1.172-1.172 1.172h-2.343a1.173 1.173 0 0 1-1.172-1.172 1.172 1.172 0 1 0-2.344 0c0 .646-.526 1.172-1.172 1.172h-2.11a1.173 1.173 0 0 1-1.171-1.171 3.52 3.52 0 0 1 3.515-3.516h11.25a3.52 3.52 0 0 1 3.516 3.515c0 .646-.526 1.172-1.172 1.172Z"/></g><defs><clipPath id="a"><path fill="#fff" d="M13 13h30v30H13z"/></clipPath></defs></svg>