<svg xmlns="http://www.w3.org/2000/svg" width="56" height="56" fill="none"><rect width="56" height="56" fill="#FF6321" opacity=".1" rx="12"/><path fill="#FF6321" d="M34.563 16.75h-1.876v-1.875a.938.938 0 0 0 0-1.875h-9.374a.938.938 0 0 0 0 1.875v1.875h-1.875a3.754 3.754 0 0 0-3.75 3.75v16.875a3.754 3.754 0 0 0 3.75 3.75h.468v.938a.938.938 0 0 0 1.875 0v-.938h8.438v.938a.938.938 0 0 0 1.875 0v-.938h.468a3.754 3.754 0 0 0 3.75-3.75V20.5a3.754 3.754 0 0 0-3.75-3.75Zm-9.376-1.875h5.625v1.875h-5.625v-1.875Zm11.25 22.5a1.877 1.877 0 0 1-1.874 1.875H21.437a1.877 1.877 0 0 1-1.875-1.875V20.5c0-1.034.842-1.875 1.875-1.875h13.125c1.034 0 1.876.841 1.876 1.875v16.875Z"/><path fill="#FF6321" d="M28 20.969a.938.938 0 0 0-.938.937V35.97a.938.938 0 0 0 1.875 0V21.906A.938.938 0 0 0 28 20.97Zm4.688 0a.938.938 0 0 0-.938.937V35.97a.938.938 0 0 0 1.875 0V21.906a.938.938 0 0 0-.938-.937Zm-9.375 0a.938.938 0 0 0-.938.937V35.97a.938.938 0 0 0 1.875 0V21.906a.938.938 0 0 0-.938-.937Z"/></svg>